<svg width="71" height="71" viewBox="0 0 71 71" fill="none" xmlns="http://www.w3.org/2000/svg">
<rect width="71" height="71" rx="10" fill="#5956E8"/>
<path d="M46.2916 20.0834C45.8827 20.0834 45.4906 20.2458 45.2015 20.5349C44.9124 20.824 44.75 21.2162 44.75 21.625V23.1667H37.0416C36.6327 23.1667 36.2406 23.3291 35.9515 23.6183C35.6624 23.9074 35.5 24.2995 35.5 24.7084V46.2917C35.5 46.7006 35.6624 47.0927 35.9515 47.3818C36.2406 47.671 36.6327 47.8334 37.0416 47.8334H44.75V49.375C44.75 49.7839 44.9124 50.176 45.2015 50.4652C45.4906 50.7543 45.8827 50.9167 46.2916 50.9167C46.7005 50.9167 47.0926 50.7543 47.3817 50.4652C47.6709 50.176 47.8333 49.7839 47.8333 49.375V21.625C47.8333 21.2162 47.6709 20.824 47.3817 20.5349C47.0926 20.2458 46.7005 20.0834 46.2916 20.0834ZM44.75 44.75H38.5833V26.25H44.75V44.75ZM30.875 20.0834C30.4661 20.0834 30.074 20.2458 29.7848 20.5349C29.4957 20.824 29.3333 21.2162 29.3333 21.625V24.7084H24.7083C24.2994 24.7084 23.9073 24.8708 23.6182 25.1599C23.3291 25.449 23.1666 25.8412 23.1666 26.25V44.75C23.1666 45.1589 23.3291 45.551 23.6182 45.8402C23.9073 46.1293 24.2994 46.2917 24.7083 46.2917H29.3333V49.375C29.3333 49.7839 29.4957 50.176 29.7848 50.4652C30.074 50.7543 30.4661 50.9167 30.875 50.9167C31.2838 50.9167 31.676 50.7543 31.9651 50.4652C32.2542 50.176 32.4166 49.7839 32.4166 49.375V21.625C32.4166 21.2162 32.2542 20.824 31.9651 20.5349C31.676 20.2458 31.2838 20.0834 30.875 20.0834ZM29.3333 43.2084H26.25V27.7917H29.3333V43.2084Z" fill="white"/>
</svg>
